<?xml version="1.0" encoding="UTF-8" standalone="no"?>
<svg width="20px" height="20px" viewBox="0 0 20 20" version="1.1" xmlns="http://www.w3.org/2000/svg" xmlns:xlink="http://www.w3.org/1999/xlink">
    <!-- Generator: Sketch 41 (35326) - http://www.bohemiancoding.com/sketch -->
    <title>Group 10</title>
    <desc>Created with Sketch.</desc>
    <defs></defs>
    <g id="Page-1" stroke="none" stroke-width="1" fill="none" fill-rule="evenodd">
        <g id="wukker" transform="translate(-492.000000, -4136.000000)" stroke="#FFFFFF" stroke-width="1.12">
            <g id="Group-10" transform="translate(493.000000, 4137.000000)">
                <path d="M7.50566038,10.3924528 C7.50566038,10.3924528 9.88301887,12.7358491 10.8509434,12.9226415 L12.8377358,10.9358491 C12.8377358,10.9358491 13.6188679,10.1886792 14.4509434,10.9528302 L17.6943396,14.1962264 C17.6943396,14.1962264 18.2207547,15.1641509 17.609434,15.7584906 L16.0301887,17.3377358 C16.0301887,17.3377358 13.245283,19.1207547 8.77924528,16.2679245 C8.77924528,16.2679245 6.67358491,15.1641509 4.72075472,13.1773585" id="XMLID_1_"></path>
                <path d="M7.6754717,10.5622642 C7.6754717,10.5622642 5.33207547,8.18490566 5.12830189,7.21698113 L7.11509434,5.23018868 C7.11509434,5.23018868 7.86226415,4.4490566 7.09811321,3.61698113 L3.83773585,0.373584906 C3.83773585,0.373584906 2.86981132,-0.152830189 2.2754717,0.458490566 L0.696226415,2.03773585 C0.696226415,2.03773585 -1.08679245,4.82264151 1.78301887,9.28867925 C1.78301887,9.28867925 2.88679245,11.3943396 4.89056604,13.3471698" id="XMLID_4_"></path>
            </g>
        </g>
    </g>
</svg>